<?xml version="1.0" encoding="utf-8"?>
<!-- Generator: Adobe Illustrator 24.0.2, SVG Export Plug-In . SVG Version: 6.00 Build 0)  -->
<svg version="1.1" id="Capa_1" xmlns="http://www.w3.org/2000/svg" xmlns:xlink="http://www.w3.org/1999/xlink" x="0px" y="0px"
	 viewBox="0 0 824 98.72" style="enable-background:new 0 0 824 98.72;" xml:space="preserve">
<style type="text/css">
	.st0{fill:#6A4D4D;}
</style>
<g>
	<path class="st0" d="M22.68,74.23c-0.39-2.19-0.52-4.77-0.52-7.6c0-17.79,6.06-45.11,8.63-60.31V6.06c0-0.77-0.52-1.03-1.16-1.03
		c-0.52,0-1.16,0.13-1.68,0.52c-6.06,3.48-17.14,24.36-17.14,29c0,0.52,0.13,0.9,0.39,0.9c0.64,0.13,1.03,0.64,1.03,1.29
		c0,0.39-0.26,0.9-0.9,1.16c-1.68,0.52-3.74,1.16-5.8,1.16c-1.16,0-2.32-0.26-3.35-0.77C0.52,37.25,0,35.57,0,33.77
		c0-1.03,0.13-2.19,0.39-3.22C2.96,20.88,15.98,1.03,27.06,0.13L30.16,0c10.18,0,12.5,5.67,12.5,11.34c0,1.42-0.13,2.96-0.39,4.25
		c-2.32,14.43-7.09,44.59-7.09,55.67c0,2.83,0.26,4.38,0.9,4.38c2.19,0,15.08-19.59,24.74-50.65c2.19-6.83,3.61-12.76,3.61-16.88
		c0-2.32-0.39-4-1.55-4.9c-0.26-0.26-0.39-0.52-0.39-0.77c0-0.77,0.64-1.42,1.42-1.42c6.06,0.52,8.51,5.28,8.51,11.86
		c0,4.64-1.16,10.18-3.09,15.98C61.99,51.81,43.04,79.9,36.08,80.68l-1.68,0.13C30.41,80.8,23.46,79.52,22.68,74.23z"/>
	<path class="st0" d="M96.78,74.36c-3.22,0-6.57-0.39-7.99-3.09c-0.77-1.29-1.03-3.22-1.03-5.41c0-1.29,0.13-2.58,0.26-4.12
		c-2.96,5.16-7.09,10.18-12.11,10.18h-0.26c-6.19-0.13-8.76-5.28-8.76-11.99C66.88,47.17,76.16,29,88.92,29h0.13
		c3.35,0,6.06,1.16,7.6,3.61l0.9-2.32c0.64-1.03,1.8-1.42,3.35-1.42c2.96,0,6.96,1.8,6.96,3.87l-0.13,0.52
		c-1.68,4.12-10.05,26.29-10.31,35.57c0,1.8,0.13,2.96,0.77,2.96c4.25-0.13,12.37-16.63,16.11-24.74c0.26-0.64,0.64-0.77,1.16-0.77
		l0.64,0.13c0.39,0.13,0.64,0.52,0.64,1.03c0,0.26,0,0.26-0.13,0.64c-4.25,9.15-12.24,26.03-18.3,26.29H96.78z M91.24,47.81
		c0.64-1.68,1.8-5.16,1.8-7.99c0-1.8-0.52-3.22-1.93-3.61l-0.77-0.13c-5.8,0-13.15,17.53-13.15,25.13c0,2.19,0.64,3.48,1.93,3.48
		C82.99,64.57,89.95,51.03,91.24,47.81z"/>
	<path class="st0" d="M119.08,74.36c-3.09,0-6.06-0.39-7.35-3.09c-0.64-1.42-0.9-3.35-0.9-5.54c0-15.72,13.27-48.71,15.34-53.48
		c0.64-1.03,1.93-1.55,3.48-1.55c3.35,0,7.6,2.19,7.6,4l-0.13,0.39c-1.55,4.12-15.08,39.56-16.5,52.84l-0.13,2.58
		c0,0.77,0,1.29,0.26,1.29h0.26c1.68,0,4.12-3.35,4.9-4.38c4-5.54,8.38-14.95,10.95-20.36c0.26-0.64,0.64-0.77,1.16-0.77
		c0.13,0,0.39,0,0.64,0.13c0.39,0.26,0.64,0.64,0.64,1.03c0,0.26,0,0.39-0.13,0.64c-2.71,5.93-6.96,14.95-11.34,20.75
		c-1.42,2.06-4.25,5.41-6.96,5.54H119.08z"/>
	<path class="st0" d="M149.1,74.36c-10.95-0.39-14.95-6.83-14.95-14.95c0-4,0.9-8.25,2.45-12.37c3.09-8.25,9.92-18.17,19.33-18.17
		h0.52c4.9,0.13,8.89,2.58,8.89,7.47v0.26c-0.26,9.15-9.67,20.36-16.63,20.36c-1.29,0-2.58-0.39-3.61-1.29
		c-0.26,1.55-0.52,3.22-0.52,4.9c0,4.9,1.42,9.92,5.67,10.83l1.42,0.13c0.77,0,1.8-0.13,2.83-0.39c4.51-1.68,10.95-7.22,19.07-24.1
		c0.26-0.52,0.64-0.77,1.03-0.77c0.26,0,0.52,0.13,0.77,0.26c0.39,0.13,0.64,0.52,0.64,1.03c0,0,0,0.26-0.13,0.52
		c-8.63,18.04-15.72,23.84-20.88,25.65c-1.68,0.52-3.22,0.64-4.51,0.64H149.1z M160.96,36.99c0-0.77-0.26-1.16-0.64-1.42
		c-0.39-0.26-0.64-0.26-1.03-0.26c-2.96,0-7.09,5.41-8.38,7.22c-1.93,2.96-3.61,6.31-4.64,9.41c0.52,0.39,1.16,0.52,1.8,0.52
		C153.61,52.45,160.96,41.11,160.96,36.99z"/>
	<path class="st0" d="M191.63,74.36c-3.09,0-7.6-0.13-9.15-3.09c-0.64-1.29-1.03-3.09-1.03-5.16c0-9.67,6.44-25.65,8.76-32.61
		c-1.68,0.13-4,0.77-6.19,0.77c-0.64,0-1.42,0-2.06-0.26c-1.93,5.03-3.09,7.6-6.06,14.05c-0.13,0.39-0.64,0.77-1.03,0.77
		c-0.26,0-0.39,0-0.64-0.13c-0.39-0.13-0.77-0.39-0.77-1.16c0-0.13,0-0.26,0.13-0.52c3.09-6.83,4-8.89,6.19-14.18
		c-1.16-0.9-1.68-2.19-1.68-3.61c0-1.8,0.64-3.74,1.29-5.41c0.39-1.03,1.8-1.42,3.09-1.42c1.55,0,3.22,0.52,3.22,1.55l-0.13,0.39
		c-0.52,1.8-1.55,4.77-1.93,5.67c3.48-0.13,6.44-1.16,9.15-1.16c3.22,0,6.44,2.45,6.96,5.8l0.13,0.9c0,2.06-1.03,4.77-2.45,8.89
		c-2.06,5.8-6.19,17.27-6.19,23.71l0.26,2.19c0.26,1.16,0.77,1.55,1.42,1.55c1.68,0,4.12-2.96,4.77-4
		c2.45-3.61,5.67-10.05,10.57-20.88c0.26-0.52,0.64-0.77,1.03-0.77s0.64,0.13,0.9,0.26c0.26,0.13,0.52,0.52,0.52,1.03
		c0,0.13,0,0.26-0.13,0.52c-4.9,10.95-8.12,17.53-10.7,21.26c-2.83,4.12-4.64,5.03-6.96,5.03H191.63z"/>
	<path class="st0" d="M213.54,74.36c-3.22,0-6.57-0.39-7.99-3.09c-0.77-1.29-1.16-3.35-1.16-5.67c0-2.71,0.52-5.93,1.16-9.28
		c2.06-9.67,6.31-21.14,8.25-25.9c0.52-1.03,1.8-1.55,3.22-1.55c3.09,0,7.09,1.93,7.09,3.87l-0.13,0.52
		c-1.03,2.84-10.05,28.48-10.05,36.34c0,1.42,0.26,2.19,1.03,2.19c4.25-0.13,12.24-16.63,15.85-24.74c0.26-0.64,0.64-0.77,1.16-0.77
		l0.64,0.13c0.39,0.13,0.64,0.52,0.64,1.03c0,0.26,0,0.39-0.13,0.64c-4.12,9.15-11.99,26.03-17.91,26.29H213.54z M218.31,20.88
		c0-2.06,1.55-7.09,2.32-8.76c0.39-1.16,1.55-1.55,2.96-1.55c2.96,0,6.83,2.06,6.83,4c0,0.26,0,0.64-0.26,0.9
		c-0.64,1.16-2.45,5.8-3.35,7.73c-0.26,0.64-1.16,0.9-2.19,0.9C222.04,24.1,218.31,22.55,218.31,20.88z"/>
	<path class="st0" d="M249.88,71.53c-0.77-1.29-1.03-3.22-1.03-5.41c0-1.29,0.13-2.58,0.26-4.12c-3.09,5.16-7.09,10.18-12.24,10.18
		h-0.13c-6.19-0.13-8.76-5.28-8.76-11.99c0-12.76,9.28-31.06,22.04-31.06h0.13c3.22,0.13,6.06,1.16,7.6,3.61l0.9-2.32
		c0.52-0.9,1.8-1.29,3.22-1.29c2.96,0,6.96,1.8,6.96,3.74l-0.13,0.64c-1.42,3.61-7.99,20.88-9.79,31.45
		c-0.13,0.77-0.39,3.09-0.39,4.77c0,1.03,0,1.8,0.39,2.06c0.26,0.26,0.39,0.77,0.39,1.29v0.52c0,0.52-0.39,1.03-0.77,1.03
		C255.03,74.62,251.43,74.36,249.88,71.53z M252.33,47.94c0.64-1.55,1.8-5.16,1.8-7.86c0-1.8-0.52-3.22-1.93-3.74l-0.77-0.13
		c-5.8,0-13.15,17.66-13.15,25.26c0,2.06,0.52,3.35,1.8,3.35C244.08,64.7,251.04,51.29,252.33,47.94z"/>
	<path class="st0" d="M327.33,80.68c-2.96,0-6.44-0.51-7.09-3.35c-0.13-0.39-0.13-0.9-0.13-1.42c0-4,2.06-12.5,4.77-22.3
		c4.9-17.01,11.86-37.76,13.92-42.53c0.39-1.03,1.68-1.42,3.22-1.42c3.22,0,7.6,1.93,7.6,4l-0.13,0.52
		c-3.87,10.05-7.35,21.01-10.7,31.32l1.68,0.26c4.77,0,10.95-5.16,15.72-11.73c3.48-4.77,6.96-11.6,6.96-17.4
		c0-5.03-2.71-9.28-10.44-10.31c-1.68-0.26-3.48-0.39-5.41-0.39c-16.11,0-37.37,7.99-40.72,24.36c-0.13,0.77-0.64,1.16-1.29,1.16
		l-1.03-0.26c-2.96-1.29-5.8-7.47-5.8-12.24c0-2.06,0.52-4,1.8-5.03c11.86-10.18,26.29-13.79,41.37-13.79h1.55
		c17.14,0.13,29.51,7.09,29.51,20.1c0,3.87-1.16,8.38-3.61,13.4c-4.77,9.79-14.05,18.04-24.23,18.94h-1.16
		c-2.58,0-4.25-0.77-6.31-2.45c-2.96,9.28-7.47,24.62-7.47,29.25c0,0.64-0.52,1.29-1.29,1.29H327.33z"/>
	<path class="st0" d="M375.79,74.36c-3.22,0-6.57-0.39-7.99-3.09c-0.77-1.29-1.16-3.35-1.16-5.67c0-2.71,0.52-5.93,1.16-9.28
		c2.06-9.67,6.31-21.14,8.25-25.9c0.52-1.03,1.8-1.55,3.22-1.55c3.09,0,7.09,1.93,7.09,3.87l-0.13,0.52
		c-1.03,2.84-10.05,28.48-10.05,36.34c0,1.42,0.26,2.19,1.03,2.19c4.25-0.13,12.24-16.63,15.85-24.74c0.26-0.64,0.64-0.77,1.16-0.77
		l0.64,0.13c0.39,0.13,0.64,0.52,0.64,1.03c0,0.26,0,0.39-0.13,0.64c-4.12,9.15-11.99,26.03-17.91,26.29H375.79z M380.56,20.88
		c0-2.06,1.55-7.09,2.32-8.76c0.39-1.16,1.55-1.55,2.96-1.55c2.96,0,6.83,2.06,6.83,4c0,0.26,0,0.64-0.26,0.9
		c-0.64,1.16-2.45,5.8-3.35,7.73c-0.26,0.64-1.16,0.9-2.19,0.9C384.29,24.1,380.56,22.55,380.56,20.88z"/>
	<path class="st0" d="M383.39,89.7l0.13-1.42c0.9-8.25,8.51-11.99,19.98-12.24c0.9-2.84,1.8-5.41,1.8-7.6c0-2.32-1.03-4-4.25-4.64
		c-0.77-0.13-1.16-0.77-1.16-1.29c0-0.64,0.52-1.16,1.16-1.29c5.41-0.9,10.05-8.38,12.24-15.72c0.77-2.84,1.68-5.93,1.68-8.38
		c0-3.22-1.42-5.54-5.8-5.54h-0.39c-6.31,0-10.95,10.83-13.53,16.5c-0.26,0.52-0.64,0.77-1.16,0.77c-0.64,0-1.29-0.52-1.29-1.16
		c0-0.13,0-0.39,0.13-0.64c3.48-7.6,7.6-17.66,15.98-18.04h2.19c8.89,0,13.02,3.48,13.02,10.18c0,2.45-0.51,5.28-1.55,8.51
		c-1.93,6.31-5.93,12.37-12.63,14.56c3.48,1.42,5.67,4.51,5.67,8.76c0,1.16-0.13,2.45-0.52,3.74c2.96-1.93,5.28-4.51,7.6-7.86
		c3.35-4.9,6.44-11.47,10.18-19.72c0.26-0.52,0.77-0.77,1.16-0.77c0.64,0,1.29,0.52,1.29,1.16l-0.13,0.64
		c-3.74,8.38-6.83,15.08-10.31,20.1c-2.96,4.25-6.7,7.73-10.83,9.79c-2.71,8.51-8.76,20.36-20.88,20.62
		C387.64,98.72,383.39,95.37,383.39,89.7z M392.67,92.02c3.22-1.55,7.73-7.6,9.79-13.27c-10.18,0.39-15.08,3.09-16.11,9.54v0.77
		c0,2.58,1.42,3.61,3.48,3.61C390.73,92.66,391.64,92.4,392.67,92.02z"/>
	<path class="st0" d="M459.68,74.36c-3.22,0-6.57-0.39-7.99-3.09c-0.77-1.29-1.03-3.22-1.03-5.41c0-1.29,0.13-2.58,0.26-4.12
		c-2.96,5.16-7.09,10.18-12.11,10.18h-0.26c-6.19-0.13-8.76-5.28-8.76-11.99c0-12.76,9.28-30.93,22.04-30.93h0.13
		c3.35,0,6.06,1.16,7.6,3.61l0.9-2.32c0.64-1.03,1.8-1.42,3.35-1.42c2.96,0,6.96,1.8,6.96,3.87l-0.13,0.52
		c-1.68,4.12-10.05,26.29-10.31,35.57c0,1.8,0.13,2.96,0.77,2.96c4.25-0.13,12.37-16.63,16.11-24.74c0.26-0.64,0.64-0.77,1.16-0.77
		l0.64,0.13c0.39,0.13,0.64,0.52,0.64,1.03c0,0.26,0,0.26-0.13,0.64c-4.25,9.15-12.24,26.03-18.3,26.29H459.68z M454.14,47.81
		c0.64-1.68,1.8-5.16,1.8-7.99c0-1.8-0.52-3.22-1.93-3.61l-0.77-0.13c-5.8,0-13.15,17.53-13.15,25.13c0,2.19,0.64,3.48,1.93,3.48
		C445.89,64.57,452.85,51.03,454.14,47.81z"/>
	<path class="st0" d="M495.25,74.36c-3.09,0-7.6-0.13-9.15-3.09c-0.64-1.29-1.03-3.09-1.03-5.16c0-9.67,6.44-25.65,8.76-32.61
		c-1.68,0.13-4,0.77-6.19,0.77c-0.64,0-1.42,0-2.06-0.26c-1.93,5.03-3.09,7.6-6.06,14.05c-0.13,0.39-0.64,0.77-1.03,0.77
		c-0.26,0-0.39,0-0.64-0.13c-0.39-0.13-0.77-0.39-0.77-1.16c0-0.13,0-0.26,0.13-0.52c3.09-6.83,4-8.89,6.19-14.18
		c-1.16-0.9-1.68-2.19-1.68-3.61c0-1.8,0.64-3.74,1.29-5.41c0.39-1.03,1.8-1.42,3.09-1.42c1.55,0,3.22,0.52,3.22,1.55l-0.13,0.39
		c-0.52,1.8-1.55,4.77-1.93,5.67c3.48-0.13,6.44-1.16,9.15-1.16c3.22,0,6.44,2.45,6.96,5.8l0.13,0.9c0,2.06-1.03,4.77-2.45,8.89
		c-2.06,5.8-6.19,17.27-6.19,23.71l0.26,2.19c0.26,1.16,0.77,1.55,1.42,1.55c1.68,0,4.12-2.96,4.77-4
		c2.45-3.61,5.67-10.05,10.57-20.88c0.26-0.52,0.64-0.77,1.03-0.77s0.64,0.13,0.9,0.26c0.26,0.13,0.52,0.52,0.52,1.03
		c0,0.13,0,0.26-0.13,0.52c-4.9,10.95-8.12,17.53-10.7,21.26c-2.84,4.12-4.64,5.03-6.96,5.03H495.25z"/>
	<path class="st0" d="M529.92,74.36c-3.09,0-7.6-0.13-9.15-3.09c-0.64-1.29-1.03-3.09-1.03-5.16c0-9.67,6.44-25.65,8.76-32.61
		c-1.68,0.13-4,0.77-6.19,0.77c-0.64,0-1.42,0-2.06-0.26c-1.93,5.03-3.09,7.6-6.06,14.05c-0.13,0.39-0.64,0.77-1.03,0.77
		c-0.26,0-0.39,0-0.64-0.13c-0.39-0.13-0.77-0.39-0.77-1.16c0-0.13,0-0.26,0.13-0.52c3.09-6.83,4-8.89,6.19-14.18
		c-1.16-0.9-1.68-2.19-1.68-3.61c0-1.8,0.64-3.74,1.29-5.41c0.39-1.03,1.8-1.42,3.09-1.42c1.55,0,3.22,0.52,3.22,1.55l-0.13,0.39
		c-0.52,1.8-1.55,4.77-1.93,5.67c3.48-0.13,6.44-1.16,9.15-1.16c3.22,0,6.44,2.45,6.96,5.8l0.13,0.9c0,2.06-1.03,4.77-2.45,8.89
		c-2.06,5.8-6.19,17.27-6.19,23.71l0.26,2.19c0.26,1.16,0.77,1.55,1.42,1.55c1.68,0,4.12-2.96,4.77-4
		c2.45-3.61,5.67-10.05,10.57-20.88c0.26-0.52,0.64-0.77,1.03-0.77s0.64,0.13,0.9,0.26c0.26,0.13,0.52,0.52,0.52,1.03
		c0,0.13,0,0.26-0.13,0.52c-4.9,10.95-8.12,17.53-10.7,21.26c-2.84,4.12-4.64,5.03-6.96,5.03H529.92z"/>
	<path class="st0" d="M543.83,59.8c0-13.27,8.89-30.8,20.88-30.8c1.03,0,2.19,0.13,3.22,0.39c6.06,1.68,7.99,7.22,7.99,13.27
		c0,4.77-1.16,9.92-2.45,13.4c-2.96,8.12-9.28,18.56-18.17,18.56C547.19,74.62,543.83,68.05,543.83,59.8z M567.68,54.13
		c0.52-1.68,2.19-7.48,2.19-11.86c0-2.96-0.77-5.28-3.09-5.28h-0.64c-6.19,1.03-13.02,18.43-13.02,27.84c0,3.22,0.9,5.54,2.84,5.8
		h0.39C561.36,70.62,566.39,57.99,567.68,54.13z"/>
	<path class="st0" d="M684.18,80.42c-7.09,0-9.02-4-9.15-8.89v-0.9c0-4.38,1.42-11.73,2.19-15.46c-4.64-1.16-8.89-2.32-13.4-3.74
		c-9.54,11.99-24.49,29-35.31,29c-3.87,0-7.22-1.42-8.76-4.12c-0.9-1.42-1.29-3.09-1.29-4.64c0-1.55,0.39-3.09,1.03-4.51
		c0.26-0.52,0.64-0.77,1.16-0.77s1.03,0.39,1.16,1.03c0.9,2.45,1.93,2.96,5.03,3.09c7.09,0,17.91-9.28,29-21.39
		c-8.89-2.45-22.42-5.93-33.12-5.93c-2.32,0-4.38,0.13-6.32,0.52c-3.35,0.52-6.44,1.55-8.76,3.22c-0.26,0.26-0.52,0.26-0.9,0.26
		c-0.64,0-1.16-0.52-1.16-1.16v-0.26c1.03-6.06,3.48-11.08,9.92-12.37c1.67-0.39,3.61-0.52,5.54-0.52c11.34,0,26.42,5.16,40.47,9.92
		c11.6-13.4,21.78-27.58,32.86-41.24c0.52-0.77,1.68-1.16,2.84-1.16c1.03,0,2.32,0.26,3.35,0.77c1.93,0.77,3.61,2.06,3.61,3.35
		c0,0.26,0,0.52-0.13,0.64c-4.25,8.76-10.05,29.38-13.79,45.62l3.87,0.13c1.55,0,2.83-0.13,3.87-0.77
		c5.03-2.58,6.57-9.79,9.54-17.14c-1.16-0.9-1.67-2.19-1.67-3.61c0-1.8,0.64-3.61,1.29-5.41c0.39-0.9,1.8-1.29,3.09-1.29
		c1.55,0,3.09,0.52,3.09,1.55v0.39c-0.52,1.68-1.55,4.64-1.93,5.67c3.35-0.13,6.32-1.29,9.15-1.29c3.09,0.13,6.32,2.58,6.96,5.8
		v0.77c0,2.06-1.03,4.77-2.45,8.89c-2.06,5.8-6.06,17.14-6.06,23.46c0,0.9,0.13,1.67,0.26,2.32c0.26,1.16,0.77,1.55,1.42,1.55
		c1.68,0,4.12-2.96,4.77-4c2.45-3.61,5.54-9.92,10.44-20.75c0.26-0.52,0.64-0.77,1.16-0.77c0.13,0,0.52,0.13,0.64,0.26
		c0.39,0.26,0.64,0.64,0.64,1.03c0,0.13,0,0.26-0.13,0.52c-4.9,10.83-8.12,17.4-10.7,21.14c-2.83,4.12-4.64,5.03-6.96,5.03h-0.52
		c-3.09-0.13-8.25,0.13-9.79-3.09c-0.64-1.29-1.03-3.09-1.03-5.16c0-9.54,6.44-25.52,8.76-32.35c-1.68,0.13-4.12,0.77-6.19,0.77
		c-0.77,0-1.42-0.13-2.06-0.26c-2.45,6.19-4.77,14.43-9.67,19.2c-2.32,2.19-5.28,3.74-9.15,3.74l-2.06-0.13
		c-1.68,8.38-2.84,15.46-2.84,19.46c0,1.03,0,1.8,0.13,2.45l0.13,0.13c0,0.77-0.64,1.42-1.42,1.42H684.18z M687.79,18.17
		c-7.09,10.7-13.4,19.59-19.07,27.06c3.48,1.16,6.83,2.19,10.05,3.09C681.21,38.53,684.57,27.58,687.79,18.17z"/>
	<path class="st0" d="M741.14,74.36c-3.22,0-6.57-0.39-7.99-3.09c-0.77-1.29-1.16-3.35-1.16-5.67c0-2.71,0.52-5.93,1.16-9.28
		c2.06-9.67,6.31-21.14,8.25-25.9c0.52-1.03,1.8-1.55,3.22-1.55c3.09,0,7.09,1.93,7.09,3.87l-0.13,0.52
		c-1.03,2.84-10.05,28.48-10.05,36.34c0,1.42,0.26,2.19,1.03,2.19c4.25-0.13,12.24-16.63,15.85-24.74c0.26-0.64,0.64-0.77,1.16-0.77
		l0.64,0.13c0.39,0.13,0.64,0.52,0.64,1.03c0,0.26,0,0.39-0.13,0.64c-4.12,9.15-11.99,26.03-17.91,26.29H741.14z M745.91,20.88
		c0-2.06,1.55-7.09,2.32-8.76c0.39-1.16,1.55-1.55,2.96-1.55c2.96,0,6.83,2.06,6.83,4c0,0.26,0,0.64-0.26,0.9
		c-0.64,1.16-2.45,5.8-3.35,7.73c-0.26,0.64-1.16,0.9-2.19,0.9C749.64,24.1,745.91,22.55,745.91,20.88z"/>
	<path class="st0" d="M785.47,74.36c-3.22,0-6.57-0.39-7.99-3.09c-0.77-1.29-1.03-3.22-1.03-5.41c0-1.29,0.13-2.58,0.26-4.12
		c-2.96,5.16-7.09,10.18-12.12,10.18h-0.26c-6.19-0.13-8.76-5.28-8.76-11.99c0-12.76,9.28-30.93,22.04-30.93h0.13
		c3.35,0,6.06,1.16,7.6,3.61l0.9-2.32c0.64-1.03,1.8-1.42,3.35-1.42c2.96,0,6.96,1.8,6.96,3.87l-0.13,0.52
		c-1.68,4.12-10.05,26.29-10.31,35.57c0,1.8,0.13,2.96,0.77,2.96c4.25-0.13,12.37-16.63,16.11-24.74c0.26-0.64,0.64-0.77,1.16-0.77
		l0.64,0.13c0.39,0.13,0.64,0.52,0.64,1.03c0,0.26,0,0.26-0.13,0.64c-4.25,9.15-12.24,26.03-18.3,26.29H785.47z M779.93,47.81
		c0.64-1.68,1.8-5.16,1.8-7.99c0-1.8-0.52-3.22-1.93-3.61l-0.77-0.13c-5.8,0-13.15,17.53-13.15,25.13c0,2.19,0.64,3.48,1.93,3.48
		C771.68,64.57,778.64,51.03,779.93,47.81z"/>
	<path class="st0" d="M797.07,64.05c0-2.96,1.03-6.06,2.96-8.63c0.64-0.9,1.67-1.29,2.71-1.29c2.96,0,6.7,2.71,6.7,4.38
		c0,0.39-0.13,0.64-0.51,0.9c-1.93,1.8-3.74,6.44-3.74,9.15c0,0.9,0.26,1.68,0.64,1.93c0.26,0.13,0.52,0.26,0.77,0.26
		c0.77,0,1.68-0.64,2.32-1.42c1.8-2.32,2.32-5.54,2.32-9.15c0-6.19-1.55-13.4-1.55-19.07c0-0.9,0-1.8,0.13-2.71l-4.64,9.92
		c-0.26,0.52-0.64,0.77-1.16,0.77c-0.64,0-1.29-0.64-1.29-1.29c0-0.13,0-0.39,0.13-0.64c1.16-2.32,7.86-18.17,10.18-18.17h9.67
		c0.77,0,1.29,0.64,1.29,1.29c0,0.26-0.13,0.52-0.26,0.77c-2.32,3.48-2.96,6.96-2.96,10.44c0,5.41,1.55,10.83,1.55,16.37
		c0,8.51-4.64,16.75-14.05,16.75C800.68,74.62,797.07,69.59,797.07,64.05z"/>
</g>
</svg>
